<svg id="visual" viewBox="0 0 900 600" width="900" height="600" xmlns="http://www.w3.org/2000/svg" xmlns:xlink="http://www.w3.org/1999/xlink" version="1.1"><rect x="0" y="0" width="900" height="600" fill="#FFFFFF"></rect><path d="M0 29L30 34C60 39 120 49 180 48C240 47 300 35 360 33.2C420 31.3 480 39.7 540 40.3C600 41 660 34 720 32.2C780 30.3 840 33.7 870 35.3L900 37L900 0L870 0C840 0 780 0 720 0C660 0 600 0 540 0C480 0 420 0 360 0C300 0 240 0 180 0C120 0 60 0 30 0L0 0Z" fill="#55b8a4"></path><path d="M0 7L30 11C60 15 120 23 180 23.5C240 24 300 17 360 17.7C420 18.3 480 26.7 540 27.5C600 28.3 660 21.7 720 16C780 10.3 840 5.7 870 3.3L900 1L900 0L870 0C840 0 780 0 720 0C660 0 600 0 540 0C480 0 420 0 360 0C300 0 240 0 180 0C120 0 60 0 30 0L0 0Z" fill="#147262"></path></svg>